<?xml version="1.0" encoding="UTF-8"?><svg id="Layer_2" xmlns="http://www.w3.org/2000/svg" xmlns:xlink="http://www.w3.org/1999/xlink" viewBox="0 0 1067 1067"><defs><style>.cls-1{fill:#fff;}.cls-2{fill:url(#linear-gradient);}</style><linearGradient id="linear-gradient" x1="156.26" y1="156.26" x2="910.74" y2="910.74" gradientTransform="matrix(1, 0, 0, 1, 0, 0)" gradientUnits="userSpaceOnUse"><stop offset="0" stop-color="aqua"/><stop offset="1" stop-color="#2e3192"/></linearGradient></defs><g id="Layer_1-2"><g><circle class="cls-2" cx="533.5" cy="533.5" r="533.5"/><g><path class="cls-1" d="M410.66,248.92c.03-.07,.07-.12,.1-.19l-44.36-23.55,.92,66.35,43.15-24.82c-1.95-5.59-2.11-11.83,.19-17.78Z"/><path class="cls-1" d="M444.13,234.07c4.15,1.6,7.55,4.22,10.25,7.37l23.13-13.31-19.51-21.84-92.17-21.58,.31,22.12,55.29,29.36c6.62-4.02,14.92-5.12,22.7-2.12Z"/><path class="cls-1" d="M520.19,311.49c.5-1.31,1.17-2.5,1.86-3.67l-65.91-34.99c-6.62,9.69-19.21,13.97-30.63,9.57-1.89-.73-3.61-1.7-5.22-2.8l-52.71,30.32,.96,69.27,164.52,16.47c1.07-1.8,2.28-3.46,3.7-4.91l-1.01-45.58c-.24-.08-.48-.1-.71-.2-13.35-5.14-19.99-20.13-14.85-33.48Z"/><polygon class="cls-1" points="364.91 118.94 365.6 168.15 439.34 185.41 377.06 115.72 364.91 118.94"/><path class="cls-1" d="M460.58,256.43c.01,.2,.07,.39,.08,.59l74.64,39.63c.89-.33,1.82-.53,2.74-.77l-49.58-55.49-27.88,16.04Z"/><polygon class="cls-1" points="364.68 102.36 365.04 102.27 364.67 101.85 364.68 102.36"/><path class="cls-1" d="M568.52,330.12c-2.98,7.74-9.31,13.12-16.67,15.36l.83,37.7c3.92-.4,7.97-.02,11.9,1.5,13.35,5.14,19.99,20.13,14.85,33.48-3.32,8.62-10.77,14.38-19.21,16.04l-6.2,9.58,3.11,140.65,99.07-46.41c-.5-4.08-.15-8.32,1.43-12.42,5.14-13.35,20.13-19.99,33.48-14.85,13.35,5.14,19.99,20.13,14.85,33.48-1.69,4.39-4.52,7.97-7.93,10.73l19.65,51.63c.17,.46,.31,.93,.39,1.4,.7,3.75-1.36,7.57-5.05,8.98-4.15,1.58-8.79-.51-10.37-4.66l-19.62-51.55c-3.49,.17-7.07-.33-10.54-1.67-3.75-1.45-6.91-3.73-9.49-6.48l-105.48,49.41,3.34,150.99c2.6,1.25,4.97,2.79,6.94,4.71l103.74-72.68c3.64-2.55,8.65-1.66,11.2,1.97,.68,.97,1.12,2.04,1.32,3.14,.56,3-.63,6.19-3.29,8.06l-105.58,73.97c.7,4.37,.4,8.95-1.3,13.38-5.14,13.35-20.13,19.99-33.48,14.85-13.35-5.14-19.99-20.13-14.85-33.48,3.32-8.61,10.75-14.37,19.17-16.04l-3.13-141.42-113.28,53.06c-.16,2.59-.58,5.2-1.57,7.75-5.14,13.35-20.13,19.99-33.48,14.85-13.35-5.14-19.99-20.13-14.85-33.48,4.93-12.8,18.92-19.32,31.83-15.3l127.58-197.16-.25-11.46c-4.56-4.28-7.33-10.08-7.97-16.25l-160.85-16.1,6.59,472.86,102.65-40.04,184.32,37.49h0l110.25-152.39,102.65-40.04-306.68-343.22s-.01,.07-.03,.1Zm187.94,336.94c-5.14,13.35-20.13,19.99-33.48,14.85-13.35-5.14-19.99-20.13-14.85-33.48,5.14-13.35,20.13-19.99,33.48-14.85,13.35,5.14,19.99,20.13,14.85,33.48Z"/><path class="cls-1" d="M424.15,646.72l117.06-54.83-2.74-124.08-115.07,177.82c.26,.36,.51,.72,.76,1.09Z"/></g></g></g></svg>